HIERARCHY
ROOT Bip001_Pelvis
{
  OFFSET 34.4345 95.6767 -26.8758
  CHANNELS 6 Xposition Yposition Zposition Zrotation Xrotation Yrotation
  JOINT Bip001_Spine
  {
    OFFSET 1.4188e-005 10.2191 -0.0116013
    CHANNELS 3 Zrotation Xrotation Yrotation
    JOINT Bip001_L_Thigh
    {
      OFFSET 11.0458 -10.2192 0.0116197
      CHANNELS 3 Zrotation Xrotation Yrotation
      JOINT Bip001_L_Calf
      {
        OFFSET -0.707118 -44.0221 0.360014
        CHANNELS 3 Zrotation Xrotation Yrotation
        JOINT Bip001_L_Foot
        {
          OFFSET -0.651902 -40.5938 -3.56146
          CHANNELS 3 Zrotation Xrotation Yrotation
          JOINT Bip001_L_Toe0
          {
            OFFSET 0.0530839 -10.2181 13.1504
            CHANNELS 3 Zrotation Xrotation Yrotation
            End Site
            {
              OFFSET -1.02532e-005 0 7.55606
            }
          }
        }
      }
    }
    JOINT Bip001_R_Thigh
    {
      OFFSET -11.0458 -10.2191 0.0115893
      CHANNELS 3 Zrotation Xrotation Yrotation
      JOINT Bip001_R_Calf
      {
        OFFSET 0.706994 -44.0221 0.35984
        CHANNELS 3 Zrotation Xrotation Yrotation
        JOINT Bip001_R_Foot
        {
          OFFSET 0.651786 -40.5938 -3.5613
          CHANNELS 3 Zrotation Xrotation Yrotation
          JOINT Bip001_R_Toe0
          {
            OFFSET -0.0531479 -10.2181 13.1504
            CHANNELS 3 Zrotation Xrotation Yrotation
            End Site
            {
              OFFSET -1.02894e-005 0 7.55606
            }
          }
        }
      }
    }
    JOINT Bip001_Spine1
    {
      OFFSET 1.87041e-005 14.5736 1.08638
      CHANNELS 3 Zrotation Xrotation Yrotation
      JOINT Bip001_Spine2
      {
        OFFSET 2.24614e-005 14.5058 -1.69078
        CHANNELS 3 Zrotation Xrotation Yrotation
        JOINT Bip001_Neck
        {
          OFFSET 2.20278e-005 15.3945 -0.489414
          CHANNELS 3 Zrotation Xrotation Yrotation
          JOINT Bip001_L_Clavicle
          {
            OFFSET 6.06036 -0.000579998 0.00836775
            CHANNELS 3 Zrotation Xrotation Yrotation
            JOINT Bip001_L_UpperArm
            {
              OFFSET 11.5509 -0.0600302 0.00193952
              CHANNELS 3 Zrotation Xrotation Yrotation
              JOINT Bip001_L_Forearm
              {
                OFFSET 25.9523 0.0806089 -2.15551
                CHANNELS 3 Zrotation Xrotation Yrotation
                JOINT Bip001_L_Hand
                {
                  OFFSET 32.2475 0.153767 1.63968
                  CHANNELS 3 Zrotation Xrotation Yrotation
                  JOINT Bip001_L_Finger0
                  {
                    OFFSET 6.04639 -2.20976 5.90322
                    CHANNELS 3 Zrotation Xrotation Yrotation
                    End Site
                    {
                      OFFSET 4.22375 -1.43895 0.606485
                    }
                  }
                  JOINT Bip001_L_Finger1
                  {
                    OFFSET 11.0826 -0.704819 -0.198153
                    CHANNELS 3 Zrotation Xrotation Yrotation
                    End Site
                    {
                      OFFSET 6.20027 -0.397518 -0.0787166
                    }
                  }
                }
              }
            }
          }
          JOINT Bip001_R_Clavicle
          {
            OFFSET -6.06037 -0.000563197 0.00835105
            CHANNELS 3 Zrotation Xrotation Yrotation
            JOINT Bip001_R_UpperArm
            {
              OFFSET -11.5509 -0.0599978 0.00190698
              CHANNELS 3 Zrotation Xrotation Yrotation
              JOINT Bip001_R_Forearm
              {
                OFFSET -25.9523 0.0806822 -2.15589
                CHANNELS 3 Zrotation Xrotation Yrotation
                JOINT Bip001_R_Hand
                {
                  OFFSET -32.2475 0.153859 1.63989
                  CHANNELS 3 Zrotation Xrotation Yrotation
                  JOINT Bip001_R_Finger0
                  {
                    OFFSET -6.04641 -2.20976 5.90317
                    CHANNELS 3 Zrotation Xrotation Yrotation
                    End Site
                    {
                      OFFSET -4.22376 -1.43895 0.60647
                    }
                  }
                  JOINT Bip001_R_Finger1
                  {
                    OFFSET -11.0826 -0.704794 -0.198182
                    CHANNELS 3 Zrotation Xrotation Yrotation
                    End Site
                    {
                      OFFSET -6.20028 -0.397504 -0.0787333
                    }
                  }
                }
              }
            }
          }
          JOINT Bip001_Head
          {
            OFFSET 1.09673e-005 11.2744 2.05948
            CHANNELS 3 Zrotation Xrotation Yrotation
            End Site
            {
              OFFSET 2.89576e-005 20.8808 -2.77728e-005
            }
          }
        }
      }
    }
  }
}
MOTION
Frames:	15
Frame Time:	0.04
36.1499 95.2472 -31.4642 -1.07794 -3.93207 -15.0613 0.67671 2.85661 -2.00259 3.88096 1.08396 16.8778 -1.58562 11.8153 9.33969 4.17584 -6.35309 0.0669146 1.71321 -6.11343 -0.588768 -6.40843 -6.89612 4.99878 -1.08597 14.0745 1.97491 -3.88495 -7.71263 6.18557 3.00402 -10.3232 3.74215 1.45579 5.68756 -4.0463 1.45579 5.68757 -4.04629 5.15315 -5.21831 5.49482 -25.0891 8.98727 -6.38019 -49.0331 35.6567 -0.560454 15.4445 -3.96801 -31.8509 9.87424 0.803433 -5.77468 6.36111e-015 1.59028e-015 -7.95139e-016 9.54166e-015 1.59028e-015 -0 23.835 7.59678 3.89785 68.3664 12.9951 -14.9153 -28.736 18.0758 18.4234 -37.8256 -10.9913 2.8364 2.78298e-015 3.18055e-015 3.18055e-015 3.97569e-015 1.59028e-015 3.18055e-015 -3.4254 -3.60066 7.3132 
36.8744 95.0848 -31.2881 -1.30221 -4.34622 -16.7715 0.794174 3.04183 -2.12614 3.19143 1.32114 16.2156 -1.89786 12.3631 11.4951 5.28917 -6.4859 0.0886168 1.79239 -6.53424 -0.468227 -6.66953 -7.48729 5.56687 -1.58039 14.9214 2.2804 -3.70478 -7.80227 7.2272 3.17088 -10.8084 3.91494 1.7053 6.05173 -4.30333 1.70471 6.05174 -4.30338 4.78223 -4.37328 6.29361 -24.4086 8.52826 -7.62669 -48.3642 34.8768 -1.01586 15.8648 -4.39763 -33.7456 9.62798 0.618104 -6.7308 9.54166e-015 3.18055e-015 -1.59028e-015 1.27222e-014 3.97569e-015 -2.38542e-015 23.6848 6.24651 2.89887 69.173 13.6578 -16.0281 -26.4186 17.0418 15.8568 -37.2775 -11.5304 2.49326 -3.97569e-015 0 -1.59028e-015 1.19271e-015 -1.59028e-015 -0 -3.12893 -4.72548 7.97298 
37.5081 94.8038 -31.2414 -1.60898 -4.7216 -18.1955 0.862377 3.23337 -2.20491 3.05975 0.785805 15.8478 -2.3864 14.3784 13.4539 5.80672 -7.56091 0.162348 1.85575 -6.70979 -0.46055 -6.85446 -8.44784 6.46358 -1.53656 16.4681 2.91805 -4.0473 -8.14158 7.28794 3.34872 -11.2872 4.05017 1.84918 6.43061 -4.46967 1.8526 6.43062 -4.46926 4.45209 -3.55166 6.902 -23.8943 8.05787 -8.83971 -47.4551 33.7235 -1.59293 15.8273 -4.84442 -35.4127 9.52249 0.646376 -6.39857 -3.18055e-015 -3.18055e-015 3.97569e-016 5.51738e-033 -3.97569e-016 7.95139e-016 23.5568 5.07195 2.26558 70.0606 14.2729 -17.8804 -26.8463 16.2739 16.2586 -38.0525 -9.66826 1.43567 4.57205e-015 -1.59028e-015 -1.59028e-015 7.95139e-015 -1.59028e-015 -1.59028e-015 -2.88695 -5.88664 8.4709 
38.0386 94.4234 -31.3305 -1.83369 -5.09455 -19.3479 0.838046 3.45694 -2.2694 3.34991 -0.202642 15.4342 -3.31595 17.142 15.3974 5.99433 -9.10767 0.259499 1.77165 -6.63912 -0.429928 -6.88023 -9.73656 7.43722 -1.47634 18.5789 3.32251 -4.4896 -8.73342 7.25851 3.53392 -11.7844 4.19847 1.81863 6.87755 -4.60139 1.81787 6.87757 -4.60162 3.99163 -2.86899 7.52379 -23.064 7.59596 -9.80342 -46.4247 32.5775 -2.45174 15.5957 -5.18878 -36.6452 9.65893 0.630653 -6.43713 6.36111e-015 1.98785e-015 -3.97569e-016 9.54166e-015 2.78299e-015 -1.19271e-015 23.6943 4.08553 1.79226 70.23 12.5888 -19.4543 -28.9933 14.3576 19.9411 -37.9654 -9.16214 1.43539 1.15295e-014 1.59028e-015 -0 7.95139e-015 1.59028e-015 -7.95139e-016 -2.3091 -7.23054 8.89254 
38.421 93.9132 -31.5335 -2.30331 -5.58337 -20.0749 0.806135 3.73976 -2.29742 4.13368 -1.51941 13.8291 -4.85 20.5325 18.0755 6.85007 -10.4387 0.363812 1.80509 -7.09142 -0.497235 -6.53744 -11.0702 8.27778 -1.385 21.2185 3.71114 -5.09943 -9.50518 6.84233 3.71453 -12.2815 4.37171 1.76684 7.44373 -4.6608 1.76744 7.44371 -4.66121 3.86245 -2.4721 8.01661 -22.4604 7.40997 -10.7611 -45.6219 31.4566 -3.3205 15.4966 -5.39953 -37.224 9.91513 0.418702 -6.55327 -9.54166e-015 1.98785e-015 3.57812e-015 -6.36111e-015 2.38542e-015 2.98177e-015 23.0709 3.37645 1.04624 70.478 10.7779 -20.0077 -31.0841 11.164 24.1924 -37.1855 -10.0623 1.92388 -1.39646e-014 0 -7.95139e-016 -8.39865e-015 -3.97569e-016 7.95139e-016 -2.17235 -8.31779 9.33376 
38.7299 93.1466 -31.7204 -3.08154 -6.45542 -20.644 0.772424 4.11268 -2.24218 5.44839 -2.73415 13.901 -6.63542 24.6388 18.8495 9.58808 -11.2036 0.5198 2.04511 -8.28959 -0.455145 -6.0363 -12.3627 9.1909 -1.05864 24.7358 3.94455 -5.78835 -10.8323 6.22356 3.89294 -12.7215 4.4725 1.71265 8.19145 -4.55745 1.71265 8.19146 -4.55745 3.7746 -2.65665 8.36595 -21.6735 7.7501 -11.753 -45.154 30.3281 -4.20867 15.0357 -5.35962 -37.232 10.7746 0.244508 -6.75585 -3.18055e-015 7.95139e-016 -0 -1.37935e-033 3.97569e-016 1.98785e-016 22.376 3.30676 0.294662 70.1763 8.06568 -19.0418 -33.8354 10.8308 28.3227 -37.6757 -9.615 2.67016 -8.4235e-015 -5.96354e-016 -1.59028e-015 -5.41688e-015 -3.97569e-016 -0 -2.04358 -8.53083 9.62617 
38.9559 92.2458 -31.9086 -3.7342 -7.42875 -20.9656 0.715942 4.43956 -2.16047 6.59048 -4.02456 14.7613 -7.51812 29.2826 19.1111 10.0933 -13.1723 0.735748 2.27977 -8.48707 -0.527993 -5.56321 -13.6624 10.1251 -0.653325 28.6579 4.46035 -6.79794 -12.2582 5.04407 4.0767 -13.1722 4.58092 1.60705 8.84844 -4.397 1.60703 8.84847 -4.39641 3.37279 -3.1278 8.6137 -20.4965 8.21573 -12.4372 -45.2893 30.0204 -4.84591 14.5953 -5.71219 -36.9116 11.0088 0.0613565 -6.82765 3.31043e-032 -1.19271e-015 1.59028e-015 3.18055e-015 -1.19271e-015 1.59028e-015 22.279 3.49118 -0.468565 69.1047 4.76163 -17.475 -37.1579 11.721 32.9127 -37.3755 -9.14919 3.98688 7.20594e-015 1.2921e-015 1.59028e-015 1.02871e-014 1.68967e-015 1.59028e-015 -1.59908 -8.53907 9.64803 
39.1701 91.4359 -32.1457 -3.8276 -8.11991 -20.9011 0.612139 4.59495 -2.13319 7.28393 -5.21357 13.9862 -9.0999 32.7193 20.8976 9.23409 -15.4912 0.882296 2.1895 -7.98233 -0.471762 -5.6538 -15.0503 10.9899 0.344229 32.1589 4.21124 -7.78356 -13.536 4.01268 4.23827 -13.5855 4.71071 1.40144 9.16355 -4.33604 1.40225 9.16353 -4.33652 3.2986 -3.21875 8.9837 -19.981 8.3901 -13.0108 -46.0379 30.199 -4.88158 14.3086 -6.14101 -36.3378 11.0388 0.155683 -6.70358 0 0 -3.97569e-016 -2.75869e-032 7.95139e-016 1.98785e-015 22.496 3.50172 -0.575545 67.1403 1.85508 -16.2059 -40.5288 11.6992 37.0648 -38.458 -8.36073 5.41953 2.98177e-015 0 -0 8.44835e-015 -1.98785e-015 3.18055e-015 -1.70656 -8.77267 10.0346 
39.2564 90.6392 -32.1798 -4.00709 -8.96758 -20.5285 0.528218 4.74512 -2.05556 8.04533 -5.79043 14.1681 -10.3092 35.6147 21.128 9.81766 -16.9493 1.03281 2.28795 -8.08906 -0.525485 -5.83261 -15.8814 10.7028 0.94712 35.374 4.17491 -8.5443 -14.892 3.49082 4.40652 -14.0031 4.83324 1.24034 9.46765 -4.17569 1.23708 9.46775 -4.17731 3.30075 -3.28352 9.09352 -19.6811 8.56744 -13.6977 -46.9516 30.9025 -4.59624 13.9217 -6.46689 -35.4297 10.8392 0.604854 -6.23255 -6.36111e-015 -2.78299e-015 -2.78299e-015 -3.18055e-015 -4.37326e-015 -5.56597e-015 23.087 3.62878 -0.257842 64.1125 -3.91158 -15.0637 -45.1825 12.7632 43.2326 -39.2722 -7.80184 5.82839 7.95139e-016 3.18055e-015 6.36111e-015 -1.98785e-016 7.95139e-016 3.18055e-015 -2.14149 -8.90455 10.1978 
39.1872 89.9228 -32.1571 -4.46701 -9.80174 -19.8056 0.528052 4.866 -1.94092 9.29662 -5.99549 15.1053 -11.3101 38.2661 20.0877 10.6604 -18.27 1.23376 2.512 -8.37691 -0.715765 -5.75192 -16.1082 10.3237 1.53371 37.9546 3.88915 -9.28716 -15.9894 2.80529 4.60005 -14.4629 4.95042 1.23182 9.71078 -3.95001 1.23003 9.71085 -3.9492 3.17717 -3.56935 9.08235 -19.4482 8.87876 -13.9386 -47.9983 31.9705 -3.8655 13.4311 -6.76489 -34.5921 10.4007 1.25144 -6.11295 -1.27222e-014 7.95139e-016 3.97569e-015 -9.54166e-015 3.18056e-015 2.38542e-015 23.3868 4.0047 0.0689909 61.3333 -10.1082 -14.427 -46.8554 10.1666 49.9151 -39.6102 -7.29116 5.79217 0 1.59028e-015 -0 -2.38542e-015 3.18056e-015 -0 -2.37573 -8.80597 10.1873 
39.0739 89.3495 -32.1063 -4.56904 -10.6174 -18.7451 0.436843 4.92863 -1.77881 10.2831 -5.97106 15.5593 -12.2836 40.1453 19.1161 10.7187 -19.7533 1.39851 2.73661 -8.34234 -1.09283 -5.8642 -16.0573 9.59161 1.88166 40.0505 3.73615 -10.1451 -16.831 1.78751 4.78603 -14.9091 5.07907 1.03345 9.84108 -3.61558 1.03346 9.84112 -3.61559 3.85059 -3.08625 9.08249 -20.037 8.58102 -14.4354 -48.8274 33.0251 -2.85461 13.6611 -5.56935 -33.4227 10.0398 1.05138 -5.96943 3.18055e-015 0 -0 6.36111e-015 2.38542e-015 -7.95139e-016 22.7045 3.82502 0.716885 58.7448 -17.0388 -13.4509 -46.8335 7.74477 56.979 -40.9077 -5.26874 4.86059 7.95139e-016 -7.95139e-015 -0 7.95139e-016 -1.11319e-014 -3.18055e-015 -3.59028 -9.39897 10.5513 
39.0206 88.9288 -31.9878 -4.27092 -11.3107 -17.0213 0.282318 4.91329 -1.65016 10.6411 -6.04603 15.764 -12.3274 41.4496 17.2998 11.219 -20.6343 1.5572 2.83192 -8.37137 -1.13965 -6.26482 -15.7291 9.2217 2.72034 41.6474 3.04986 -11.1022 -17.5731 0.408827 4.84372 -15.0973 5.19735 0.710165 9.81637 -3.34318 0.711084 9.8166 -3.34325 4.19431 -3.74969 8.71641 -20.3336 9.18419 -14.1441 -49.7225 34.7446 -1.62468 14.5857 -4.40793 -31.3192 9.45445 0.433133 -6.42121 -1.27222e-014 -7.95139e-016 7.95139e-016 -9.54166e-015 -3.18056e-015 7.95139e-016 22.3582 4.80382 1.34271 56.6114 -24.2198 -11.1519 -46.2042 6.46153 63.3722 -40.8249 -5.06609 5.47708 7.95139e-016 -3.18055e-015 3.18055e-015 -0 0 3.18055e-015 -3.78602 -8.62532 10.2841 
38.8857 88.6814 -31.8321 -4.0492 -11.9263 -14.7559 0.201418 4.85424 -1.55489 11.077 -6.18599 14.8226 -12.7828 42.4278 16.3093 10.9247 -21.4862 1.59644 2.82543 -8.05203 -1.28853 -6.55589 -14.8453 7.91863 2.89613 42.5357 2.98106 -11.8656 -17.9376 -0.717979 4.9691 -15.3591 5.22683 0.540049 9.70116 -3.14409 0.538134 9.70122 -3.14397 4.40256 -4.3885 7.85596 -20.8386 9.60929 -13.3306 -50.8527 36.106 0.306358 15.3116 -3.52841 -30.2405 8.665 1.12873 -5.20306 0 0 -7.95139e-016 -4.41391e-032 -1.59028e-015 -1.59028e-015 21.9624 6.00495 2.70553 53.9877 -30.2909 -10.0744 -45.6377 5.12415 70.9437 -39.6684 -4.6317 5.32798 1.76556e-031 -3.18055e-015 3.18055e-015 3.53113e-031 -3.18056e-015 6.36111e-015 -3.97779 -7.93007 9.49487 
38.5849 88.6601 -31.6433 -3.91043 -12.6293 -13.0215 0.123949 4.80934 -1.27196 11.5837 -5.63706 14.6797 -12.7144 42.5588 14.2872 11.2944 -21.5449 1.64905 2.89087 -8.10493 -1.41587 -6.59951 -13.5768 6.93081 3.02716 42.7308 2.78661 -12.445 -18.0511 -1.72597 4.99479 -15.4024 5.22159 0.359828 9.61477 -2.56817 0.357631 9.61401 -2.56809 4.7454 -5.4455 6.35661 -21.5902 10.1652 -11.6528 -51.7732 37.1614 1.92094 15.6389 -2.30923 -28.8681 7.84401 1.40173 -4.20495 3.18055e-015 0 -7.95139e-016 -3.18055e-015 3.18056e-015 7.95139e-016 21.0867 7.874 4.69088 52.2261 -36.9957 -7.83381 -43.4102 3.94801 78.3482 -36.9833 -3.59225 5.45095 0 9.54166e-015 -0 -3.18055e-015 6.36111e-015 -3.18055e-015 -4.22674 -7.04396 8.11567 
38.2175 88.8467 -31.522 -3.77524 -13.1098 -11.715 0.0350247 4.67069 -0.871292 11.9114 -4.93306 14.9436 -11.7947 42.1042 11.5546 11.5985 -21.0995 1.64365 2.86414 -8.29541 -1.40015 -6.52935 -12.2985 6.3171 3.36905 42.3288 2.34486 -12.7003 -17.827 -2.42057 4.98551 -15.3338 5.13122 0.142241 9.34032 -1.75431 0.142242 9.34051 -1.75432 4.92066 -6.01574 4.44528 -22.4122 10.019 -9.50046 -52.5718 38.4885 3.72097 15.6889 -1.5051 -27.3426 6.99248 1.64865 -3.8469 -3.18055e-015 -3.18055e-015 -1.59028e-015 -4.41391e-032 -1.59028e-015 -1.59028e-015 19.9937 9.47628 7.67019 51.5489 -43.2243 -3.62122 -38.3274 3.46967 84.444 -34.87 -3.1586 5.28354 1.76556e-030 1.27222e-014 -7.95139e-015 3.18055e-015 9.54167e-015 -6.36111e-015 -4.20851 -6.26634 6.27606 
